<svg width="137" height="119" viewBox="0 0 137 119" fill="none" xmlns="http://www.w3.org/2000/svg">
<rect width="198" height="44" transform="translate(29.5886 -46.413) rotate(42)" fill="#20AD96"/>
<path d="M58.031 18.22L66.8525 8.42266L70.4775 11.6866C71.5313 12.6354 72.1458 13.5948 72.3211 14.5648C72.5047 15.5343 72.2338 16.4218 71.5085 17.2274C71.0655 17.7194 70.558 18.051 69.9861 18.222C69.4182 18.3887 68.85 18.3936 68.2817 18.2366C68.6901 18.904 68.8665 19.5793 68.8111 20.2626C68.7639 20.9455 68.4776 21.5787 67.9522 22.1622C67.4504 22.7195 66.876 23.0815 66.2293 23.2482C65.5907 23.4144 64.9194 23.3894 64.2152 23.1733C63.5193 22.9567 62.8382 22.5484 62.172 21.9486L58.031 18.22ZM65.171 14.3358L66.6732 15.6885C67.1217 16.0923 67.5727 16.3052 68.026 16.327C68.4794 16.3489 68.8708 16.177 69.2001 15.8112C69.5216 15.4541 69.6417 15.0537 69.5603 14.6099C69.4873 14.1656 69.2178 13.7338 68.7518 13.3142L67.2823 11.991L65.171 14.3358ZM61.6247 18.2744L63.2511 19.7387C63.6081 20.0602 63.9624 20.2885 64.3138 20.4236C64.6692 20.5543 65.0008 20.5888 65.3087 20.5271C65.6249 20.4648 65.8967 20.3075 66.1241 20.0549C66.3515 19.8024 66.4803 19.528 66.5104 19.2319C66.5449 18.9396 66.4814 18.638 66.3199 18.327C66.1623 18.0117 65.9158 17.703 65.5805 17.4011L63.8301 15.825L61.6247 18.2744ZM73.366 30.7031C72.0386 30.5487 70.8937 30.0382 69.9314 29.1717C69.2173 28.5287 68.7122 27.798 68.4163 26.9796C68.1286 26.1607 68.0565 25.3389 68.1999 24.514C68.3478 23.6931 68.7196 22.9517 69.3156 22.2899C69.8841 21.6585 70.5399 21.2279 71.2829 20.9981C72.0303 20.7722 72.7903 20.7469 73.5629 20.9222C74.3355 21.0974 75.0484 21.4791 75.7015 22.0672C76.3764 22.6749 76.8277 23.369 77.0553 24.1495C77.2868 24.9257 77.2914 25.7262 77.0691 26.551C76.8508 27.3715 76.4083 28.1519 75.7418 28.8921L75.5536 29.1011L70.7399 24.7668C70.5869 25.0943 70.5115 25.4364 70.5136 25.793C70.5196 26.1454 70.6045 26.4977 70.7681 26.8501C70.9318 27.2025 71.1856 27.5335 71.5296 27.8433C72.1959 28.4431 73.0104 28.7863 73.9734 28.8728L73.366 30.7031ZM71.5136 23.7367L74.6814 26.589C74.9014 26.2746 75.0356 25.9461 75.084 25.6033C75.1407 25.2601 75.1086 24.9237 74.9876 24.594C74.8709 24.2682 74.6711 23.9778 74.388 23.723C74.1006 23.4642 73.7869 23.296 73.4468 23.2184C73.111 23.1448 72.7774 23.1519 72.4459 23.2398C72.1145 23.3277 71.8037 23.4933 71.5136 23.7367ZM74.3562 31.9021L76.2026 30.6789C76.2039 30.9402 76.2585 31.2299 76.3664 31.5478C76.4787 31.8697 76.6278 32.1814 76.8137 32.4828C77.0079 32.7838 77.2182 33.0362 77.4446 33.2401C77.7146 33.4832 77.9708 33.6233 78.2134 33.6603C78.4599 33.693 78.6616 33.6223 78.8184 33.4481C78.9478 33.3044 79.0034 33.1377 78.9851 32.9478C78.9751 32.7574 78.9164 32.5468 78.8089 32.316C78.7096 32.0847 78.5888 31.838 78.4465 31.5757C78.2614 31.212 78.0834 30.8231 77.9123 30.4089C77.7456 29.9986 77.6717 29.5772 77.6905 29.1447C77.7093 28.7122 77.903 28.2913 78.2715 27.882C78.6244 27.4901 79.0325 27.2426 79.496 27.1395C79.9633 27.032 80.4548 27.0685 80.9704 27.2489C81.49 27.425 81.9979 27.7365 82.4943 28.1835C83.2999 28.9088 83.9209 29.8347 84.3575 30.961L82.4935 31.9673C82.4522 31.733 82.3682 31.476 82.2415 31.1964C82.1187 30.9124 81.9718 30.6421 81.8007 30.3856C81.6339 30.1329 81.4635 29.9282 81.2893 29.7713C81.0759 29.5792 80.8691 29.4718 80.6688 29.4491C80.4728 29.4304 80.3062 29.4972 80.1689 29.6496C80.067 29.7628 80.0162 29.9024 80.0166 30.0683C80.021 30.2299 80.0664 30.4246 80.153 30.6524C80.2479 30.8797 80.374 31.147 80.5311 31.454C80.7292 31.8295 80.9098 32.2287 81.0731 32.6516C81.2446 33.0741 81.319 33.5038 81.2962 33.9406C81.2817 34.377 81.0883 34.802 80.7158 35.2157C80.3512 35.6207 79.9206 35.8756 79.4241 35.9804C78.9319 36.0892 78.4091 36.0481 77.8556 35.8572C77.3103 35.6659 76.7699 35.3291 76.2344 34.8469C75.3417 34.0432 74.7156 33.0616 74.3562 31.9021ZM84.7999 42.0154C84.1188 41.7648 83.5432 41.4278 83.0729 41.0043C82.5852 40.5652 82.2462 40.0748 82.056 39.5329C81.8741 38.9906 81.8453 38.4404 81.9695 37.882C82.0977 37.3194 82.3813 36.7942 82.8205 36.3065L85.0905 33.7853L83.9475 32.7562L85.4531 31.0841L86.694 32.2015L88.1643 30.5686L89.9409 32.1682L88.4706 33.8011L90.2799 35.4302L88.7743 37.1022L86.9651 35.4732L85.0008 37.6547C84.6793 38.0118 84.5264 38.3787 84.542 38.7554C84.5615 39.1278 84.7171 39.4453 85.0089 39.708C85.2745 39.9472 85.608 40.0977 86.0096 40.1596L84.7999 42.0154ZM101.272 45.3279L92.7266 49.46L90.9108 47.8251L94.1269 38.8941L96.1321 40.6996L93.5307 46.7543L99.2803 43.5342L101.272 45.3279ZM102.093 57.8934L100.46 56.4232L101.062 55.5577C100.564 55.6294 100.066 55.5871 99.5677 55.4306C99.0739 55.2698 98.6158 54.9992 98.1934 54.6189C97.7362 54.2073 97.4075 53.7536 97.2073 53.2579C97.0109 52.7579 96.9496 52.2612 97.0234 51.7677C97.101 51.2699 97.3182 50.8229 97.675 50.4267C98.0514 50.0087 98.4937 49.7407 99.002 49.6228C99.5103 49.5049 100.039 49.5311 100.587 49.7015C101.143 49.8715 101.67 50.18 102.166 50.6269C102.458 50.8896 102.72 51.185 102.953 51.513C103.191 51.8449 103.383 52.1833 103.529 52.5283L103.682 52.3585C103.917 52.0972 104.045 51.8063 104.066 51.4858C104.095 51.1648 104.028 50.8364 103.865 50.5006C103.706 50.1687 103.47 49.8616 103.157 49.5793C102.856 49.3088 102.515 49.0881 102.133 48.9173C101.755 48.7504 101.355 48.651 100.935 48.6191L101.713 46.73C102.357 46.8995 102.954 47.1296 103.504 47.4203C104.063 47.7104 104.554 48.0457 104.976 48.426C105.612 48.9984 106.049 49.6207 106.287 50.2927C106.53 50.9604 106.571 51.6366 106.412 52.3212C106.261 53.0054 105.906 53.6588 105.345 54.2815L102.093 57.8934ZM99.9046 53.546C100.153 53.7694 100.439 53.9287 100.764 54.0237C101.088 54.1187 101.404 54.1353 101.712 54.0736C102.024 54.0157 102.287 53.8775 102.499 53.6589L102.541 53.6132C102.467 53.31 102.343 53.0178 102.171 52.7364C102.007 52.4546 101.805 52.2058 101.566 51.9902C101.209 51.6687 100.846 51.4844 100.479 51.4373C100.111 51.3902 99.8156 51.4907 99.5921 51.7389C99.447 51.9 99.3614 52.0871 99.3352 52.3C99.3173 52.5126 99.3556 52.7284 99.4501 52.9475C99.5484 53.1622 99.7 53.3617 99.9046 53.546ZM105.561 61.0162L103.556 59.2108L112.613 49.1522L114.618 50.9577L105.561 61.0162ZM113.549 68.2087L112.027 66.8385L112.903 65.7346C112.327 65.91 111.757 65.9253 111.194 65.7806C110.635 65.6398 110.1 65.34 109.591 64.8813C108.755 64.1286 108.331 63.2816 108.319 62.3404C108.307 61.3992 108.705 60.4802 109.512 59.5832L112.912 55.8079L114.786 57.4958L111.775 60.8399C111.316 61.3494 111.075 61.8578 111.052 62.3652C111.037 62.8721 111.239 63.3138 111.657 63.6902C112.092 64.0823 112.572 64.2418 113.095 64.1687C113.626 64.0952 114.125 63.7994 114.592 63.2812L117.556 59.9893L119.43 61.6772L113.549 68.2087ZM121.817 74.3286C120.49 74.1741 119.345 73.6637 118.382 72.7972C117.668 72.1542 117.163 71.4235 116.867 70.6051C116.58 69.7862 116.507 68.9644 116.651 68.1395C116.799 67.3186 117.171 66.5772 117.767 65.9153C118.335 65.284 118.991 64.8534 119.734 64.6236C120.481 64.3977 121.241 64.3724 122.014 64.5477C122.786 64.7229 123.499 65.1046 124.153 65.6927C124.827 66.3004 125.279 66.9945 125.506 67.775C125.738 68.5512 125.742 69.3517 125.52 70.1765C125.302 70.997 124.859 71.7773 124.193 72.5176L124.005 72.7266L119.191 68.3923C119.038 68.7198 118.962 69.0618 118.965 69.4185C118.971 69.7709 119.055 70.1232 119.219 70.4756C119.383 70.828 119.637 71.159 119.981 71.4688C120.647 72.0686 121.461 72.4118 122.424 72.4982L121.817 74.3286ZM119.965 67.3622L123.132 70.2145C123.352 69.9001 123.487 69.5715 123.535 69.2288C123.592 68.8856 123.56 68.5492 123.439 68.2194C123.322 67.8936 123.122 67.6033 122.839 67.3485C122.552 67.0897 122.238 66.9215 121.898 66.8439C121.562 66.7703 121.228 66.7774 120.897 66.8653C120.565 66.9532 120.255 67.1188 119.965 67.3622Z" fill="white"/>
</svg>
