<svg width="73" height="72" viewBox="0 0 73 72" fill="none" xmlns="http://www.w3.org/2000/svg">
<path d="M61.76 13.74C60.255 12.2297 58.4666 11.0314 56.4975 10.2138C54.5283 9.39611 52.4172 8.97522 50.285 8.97522C48.1529 8.97522 46.0417 9.39611 44.0726 10.2138C42.1034 11.0314 40.3151 12.2297 38.81 13.74L36.5 16.08L34.19 13.74C32.685 12.2297 30.8966 11.0314 28.9275 10.2138C26.9583 9.39611 24.8472 8.97522 22.715 8.97522C20.5829 8.97522 18.4717 9.39611 16.5026 10.2138C14.5334 11.0314 12.7451 12.2297 11.24 13.74C4.88001 20.1 4.49001 30.84 12.5 39L36.5 63L60.5 39C68.51 30.84 68.12 20.1 61.76 13.74Z" stroke="#3F3A64" stroke-width="2.75" stroke-linecap="round" stroke-linejoin="round"/>
<path d="M36.5 16.08L27.11 25.5C25.9228 26.6968 25.2567 28.3142 25.2567 30C25.2567 31.6857 25.9228 33.3031 27.11 34.5V34.5C28.3068 35.6871 29.9242 36.3532 31.61 36.3532C33.2957 36.3532 34.9131 35.6871 36.11 34.5L42.89 27.87C44.575 26.2028 46.8496 25.2677 49.22 25.2677C51.5903 25.2677 53.865 26.2028 55.55 27.87L62.75 35.07M54.5 45L48.5 39M45.5 54L39.5 48" stroke="#20AD96" stroke-width="2.75" stroke-linecap="round" stroke-linejoin="round"/>
</svg>
