<svg width="131" height="24" viewBox="0 0 131 24" fill="none" xmlns="http://www.w3.org/2000/svg">
<path d="M11.0001 20H7.00009C6.73487 20 6.48052 20.1053 6.29298 20.2929C6.10544 20.4804 6.00009 20.7347 6.00009 21C6.00009 21.2652 6.10544 21.5195 6.29298 21.7071C6.48052 21.8946 6.73487 22 7.00009 22H17.0001C17.2653 22 17.5197 21.8946 17.7072 21.7071C17.8947 21.5195 18.0001 21.2652 18.0001 21C18.0001 20.7347 17.8947 20.4804 17.7072 20.2929C17.5197 20.1053 17.2653 20 17.0001 20H13.0001V18.77C14.6533 18.3984 16.1666 17.5639 17.3631 16.364C18.2016 15.5302 18.8664 14.5385 19.319 13.4461C19.7717 12.3537 20.0031 11.1824 20.0001 9.99996C20.0062 7.95699 19.3115 5.9737 18.0321 4.38096L18.7071 3.70796C18.8857 3.51862 18.9836 3.26712 18.9799 3.00683C18.9762 2.74653 18.8713 2.49791 18.6873 2.31371C18.5034 2.1295 18.2549 2.0242 17.9946 2.02014C17.7343 2.01608 17.4827 2.11358 17.2931 2.29196L15.2411 4.34096L15.9491 5.04896C17.2711 6.37096 18.0001 8.12996 18.0001 9.99996C18.0001 11.87 17.2711 13.627 15.9491 14.949C14.6271 16.271 12.8701 17 11.0001 17C9.13009 17 7.37309 16.271 6.05109 14.949C5.86358 14.7615 5.60926 14.6561 5.34409 14.6561C5.07891 14.6561 4.8246 14.7615 4.63709 14.949C4.44958 15.1365 4.34424 15.3908 4.34424 15.656C4.34424 15.7873 4.3701 15.9173 4.42035 16.0386C4.47059 16.1599 4.54424 16.2701 4.63709 16.363C5.47057 17.2015 6.46214 17.8664 7.55437 18.319C8.6466 18.7717 9.81778 19.0031 11.0001 19V20ZM11.0001 3.99996C12.6571 3.99996 14.1571 4.67196 15.2431 5.75696C15.8009 6.31369 16.2432 6.97511 16.5447 7.70324C16.8463 8.43137 17.001 9.21188 17.0001 9.99996C17.0009 10.7879 16.8461 11.5682 16.5446 12.2962C16.243 13.0241 15.8008 13.6854 15.2431 14.242C14.6865 14.8001 14.0252 15.2427 13.297 15.5444C12.5689 15.8461 11.7883 16.0009 11.0001 16C10.2121 16.001 9.43173 15.8463 8.70374 15.5448C7.97575 15.2433 7.31453 14.8009 6.75809 14.243C5.67309 13.157 5.00209 11.657 5.00209 9.99996C5.00209 8.34296 5.67309 6.84296 6.75809 5.75696C7.31453 5.19907 7.97575 4.75664 8.70374 4.45511C9.43173 4.15359 10.2121 3.99891 11.0001 3.99996Z" fill="#20AD96"/>
<path d="M28.81 13.9375L31.8725 13.375C32.1225 15.25 33.1642 16.1875 34.9975 16.1875C36.3725 16.1458 37.1017 15.6042 37.185 14.5625C37.185 13.7708 36.7058 13.1875 35.7475 12.8125C34.7475 12.4792 33.8308 12.2083 32.9975 12C30.4558 11.4583 29.2267 10.1458 29.31 8.0625C29.56 5.72917 31.2475 4.47917 34.3725 4.3125C37.6225 4.27083 39.5392 5.5625 40.1225 8.1875L37.06 8.8125C36.8517 7.4375 35.9975 6.75 34.4975 6.75C33.2892 6.79167 32.6433 7.22917 32.56 8.0625C32.4767 8.85417 33.2892 9.4375 34.9975 9.8125C36.2058 10.0625 37.2892 10.4375 38.2475 10.9375C39.7058 11.6875 40.4558 12.8542 40.4975 14.4375C40.3725 17.1042 38.56 18.4792 35.06 18.5625C31.5183 18.6042 29.435 17.0625 28.81 13.9375ZM42.5525 15.4375V10.6875H40.99V8.4375H42.5525V5.0625L45.5525 4.4375V8.4375H47.9275V10.6875H45.5525V14.6875C45.5525 15.7708 45.9483 16.2917 46.74 16.25C47.0317 16.25 47.3233 16.1667 47.615 16L48.24 17.9375C47.5317 18.3125 46.6983 18.5 45.74 18.5C43.5733 18.5417 42.5108 17.5208 42.5525 15.4375ZM58.8575 18.25H55.795V16.8125C55.0867 17.9375 54.0658 18.5 52.7325 18.5C50.2742 18.4583 49.0242 17.1042 48.9825 14.4375V8.4375H51.9825V14.1875C51.9825 15.5625 52.6283 16.25 53.92 16.25C55.0867 16.1667 55.7117 15.3958 55.795 13.9375V8.4375H58.8575V18.25ZM70.225 18.25H67.1625V17C66.6625 18 65.6417 18.5 64.1 18.5C61.475 18.3333 60.1 16.7083 59.975 13.625C59.9333 9.95833 61.4333 8.14583 64.475 8.1875C65.7667 8.27083 66.6625 8.83333 67.1625 9.875V3.625H70.225V18.25ZM67.225 13.375V12.875C67.1417 11.4167 66.475 10.6458 65.225 10.5625C63.8083 10.6042 63.0792 11.5625 63.0375 13.4375C63.0792 15.2708 63.7875 16.2083 65.1625 16.25C66.5375 16.25 67.225 15.2917 67.225 13.375ZM75.03 7.0625H71.905V4.5H75.03V7.0625ZM75.03 18.3125H71.905V8.5H75.03V18.3125ZM86.46 18.25H83.3975V16.8125C82.6892 17.9375 81.6683 18.5 80.335 18.5C77.8767 18.4583 76.6267 17.1042 76.585 14.4375V8.4375H79.585V14.1875C79.585 15.5625 80.2308 16.25 81.5225 16.25C82.6892 16.1667 83.3142 15.3958 83.3975 13.9375V8.4375H86.46V18.25ZM103.765 18.25H100.702V12.6875C100.744 11.2292 100.202 10.5208 99.0775 10.5625C97.9108 10.5625 97.3275 11.3125 97.3275 12.8125V18.25H94.265V12.625C94.3067 11.2083 93.765 10.5208 92.64 10.5625C91.515 10.6042 90.9317 11.3542 90.89 12.8125V18.25H87.89V8.4375H90.89V10C91.5983 8.79167 92.7025 8.1875 94.2025 8.1875C95.6192 8.1875 96.5775 8.8125 97.0775 10.0625C97.8692 8.8125 99.015 8.1875 100.515 8.1875C102.682 8.1875 103.765 9.52083 103.765 12.1875V18.25ZM104.82 13.9375L107.882 13.375C108.132 15.25 109.174 16.1875 111.007 16.1875C112.382 16.1458 113.112 15.6042 113.195 14.5625C113.195 13.7708 112.716 13.1875 111.757 12.8125C110.757 12.4792 109.841 12.2083 109.007 12C106.466 11.4583 105.237 10.1458 105.32 8.0625C105.57 5.72917 107.257 4.47917 110.382 4.3125C113.632 4.27083 115.549 5.5625 116.132 8.1875L113.07 8.8125C112.862 7.4375 112.007 6.75 110.507 6.75C109.299 6.79167 108.653 7.22917 108.57 8.0625C108.487 8.85417 109.299 9.4375 111.007 9.8125C112.216 10.0625 113.299 10.4375 114.257 10.9375C115.716 11.6875 116.466 12.8542 116.507 14.4375C116.382 17.1042 114.57 18.4792 111.07 18.5625C107.528 18.6042 105.445 17.0625 104.82 13.9375ZM130.25 7.8125L127.375 8.875C126.708 7.625 125.562 7 123.938 7C121.854 7.20833 120.729 8.6875 120.562 11.4375C120.646 14.2708 121.854 15.7917 124.188 16C125.771 16 126.875 15.5208 127.5 14.5625V12.875H123.438V10.375H130.375V15.5C129.417 17.5 127.312 18.5 124.062 18.5C119.688 18.3333 117.417 15.9583 117.25 11.375C117.5 6.91667 119.708 4.5625 123.875 4.3125C127.042 4.3125 129.167 5.47917 130.25 7.8125Z" fill="#333461"/>
</svg>
